# Blender 5.1.2
# www.blender.org
o BackLeft
v 1.000000 -1.000000 4.000000
v 1.000000 1.000000 4.000000
v -1.000000 -1.000000 4.000000
v -1.000000 1.000000 4.000000
v 1.000000 -1.000000 -4.000000
v 1.000000 1.000000 -4.000000
v -1.000000 -1.000000 -4.000000
v -1.000000 1.000000 -4.000000
vn -0.0000 1.0000 -0.0000
vn 1.0000 -0.0000 -0.0000
vn -0.0000 -1.0000 -0.0000
vn -1.0000 -0.0000 -0.0000
vn -0.0000 -0.0000 1.0000
vn -0.0000 -0.0000 -1.0000
vt 0.031299 0.562500
vt 0.000000 0.687500
vt 0.000000 0.562500
vt 0.125000 0.562500
vt 0.093680 0.687500
vt 0.093680 0.562500
vt 0.093680 0.562500
vt 0.062500 0.687500
vt 0.062500 0.562500
vt 0.031299 0.687500
vt 0.062500 0.718719
vt 0.031334 0.718719
vt 0.093664 0.718749
vt 0.125000 0.687500
vt 0.093680 0.687500
s 0
f 8/1/1 2/2/1 6/3/1
f 6/4/2 1/5/2 5/6/2
f 5/7/3 3/8/3 7/9/3
f 7/9/4 4/10/4 8/1/4
f 3/10/5 2/11/5 4/12/5
f 6/13/6 7/8/6 8/11/6
f 8/1/1 4/10/1 2/2/1
f 6/4/2 2/14/2 1/5/2
f 5/7/3 1/15/3 3/8/3
f 7/9/4 3/8/4 4/10/4
f 3/10/5 1/8/5 2/11/5
f 6/13/6 5/15/6 7/8/6
